<svg width="25" height="25" viewBox="0 0 25 25" fill="none" xmlns="http://www.w3.org/2000/svg">
<path d="M10.7422 0H0.976562C0.437164 0 0 0.437164 0 0.976562V10.7422C0 11.2816 0.437164 11.7188 0.976562 11.7188H10.7422C11.2816 11.7188 11.7188 11.2816 11.7188 10.7422V0.976562C11.7188 0.437164 11.2816 0 10.7422 0ZM9.76562 9.76562H1.95312V1.95312H9.76562V9.76562ZM24.3973 13.3556C24.0324 13.2044 23.6122 13.2879 23.333 13.5672L13.5674 23.3328C13.2879 23.6122 13.2044 24.0322 13.3556 24.3971C13.5069 24.7622 13.8628 25 14.2578 25H24.0234C24.5628 25 25 24.5628 25 24.0234V14.2578C25 13.8628 24.7622 13.5067 24.3973 13.3556ZM23.0469 23.0469H16.6155L23.0469 16.6155V23.0469ZM19.1406 11.7188C22.3715 11.7188 25 9.09023 25 5.85938C25 2.62852 22.3715 0 19.1406 0C15.9098 0 13.2812 2.62852 13.2812 5.85938C13.2812 9.09023 15.9098 11.7188 19.1406 11.7188ZM19.1406 1.95312C21.2946 1.95312 23.0469 3.70541 23.0469 5.85938C23.0469 8.01334 21.2946 9.76562 19.1406 9.76562C16.9867 9.76562 15.2344 8.01334 15.2344 5.85938C15.2344 3.70541 16.9867 1.95312 19.1406 1.95312ZM11.4326 14.9485L7.24049 19.1406L11.4326 23.3328C11.8141 23.7143 11.8141 24.3326 11.4326 24.7139C11.0514 25.0952 10.433 25.0954 10.0517 24.7139L5.85938 20.5217L1.66702 24.7141C1.28574 25.0954 0.667381 25.0954 0.286102 24.7141C-0.0953674 24.3326 -0.0953674 23.7143 0.286102 23.333L4.47826 19.1406L0.286102 14.9485C-0.0953674 14.567 -0.0953674 13.9486 0.286102 13.5674C0.667381 13.1859 1.28574 13.1859 1.66702 13.5674L5.85938 17.7595L10.0517 13.5672C10.433 13.1859 11.0514 13.1859 11.4326 13.5672C11.8141 13.9486 11.8141 14.567 11.4326 14.9485Z" fill="#333333"/>
</svg>
