<svg width="25" height="25" viewBox="0 0 25 25" fill="none" xmlns="http://www.w3.org/2000/svg">
<path d="M9.63535 8.3334H1.82285C0.81768 8.3334 0 7.51572 0 6.51035V1.82285C0 0.81768 0.81768 0 1.82285 0H9.63535C10.6407 0 11.4584 0.81768 11.4584 1.82285V6.51035C11.4584 7.51572 10.6407 8.3334 9.63535 8.3334ZM1.82285 1.5625C1.67923 1.5625 1.5625 1.67923 1.5625 1.82285V6.51035C1.5625 6.65417 1.67923 6.7709 1.82285 6.7709H9.63535C9.77917 6.7709 9.8959 6.65417 9.8959 6.51035V1.82285C9.8959 1.67923 9.77917 1.5625 9.63535 1.5625H1.82285Z" fill="#333333"/>
<path d="M9.63535 25H1.82285C0.81768 25 0 24.1823 0 23.1771V12.2396C0 11.2343 0.81768 10.4166 1.82285 10.4166H9.63535C10.6407 10.4166 11.4584 11.2343 11.4584 12.2396V23.1771C11.4584 24.1823 10.6407 25 9.63535 25ZM1.82285 11.9791C1.67923 11.9791 1.5625 12.0958 1.5625 12.2396V23.1771C1.5625 23.3208 1.67923 23.4375 1.82285 23.4375H9.63535C9.77917 23.4375 9.8959 23.3208 9.8959 23.1771V12.2396C9.8959 12.0958 9.77917 11.9791 9.63535 11.9791H1.82285Z" fill="#333333"/>
<path d="M23.1771 25H15.3646C14.3593 25 13.5416 24.1823 13.5416 23.1771V18.4896C13.5416 17.4843 14.3593 16.6666 15.3646 16.6666H23.1771C24.1823 16.6666 25 17.4843 25 18.4896V23.1771C25 24.1823 24.1823 25 23.1771 25ZM15.3646 18.2291C15.2208 18.2291 15.1041 18.3458 15.1041 18.4896V23.1771C15.1041 23.3208 15.2208 23.4375 15.3646 23.4375H23.1771C23.3208 23.4375 23.4375 23.3208 23.4375 23.1771V18.4896C23.4375 18.3458 23.3208 18.2291 23.1771 18.2291H15.3646Z" fill="#333333"/>
<path d="M23.1771 14.5834H15.3646C14.3593 14.5834 13.5416 13.7657 13.5416 12.7604V1.82285C13.5416 0.81768 14.3593 0 15.3646 0H23.1771C24.1823 0 25 0.81768 25 1.82285V12.7604C25 13.7657 24.1823 14.5834 23.1771 14.5834ZM15.3646 1.5625C15.2208 1.5625 15.1041 1.67923 15.1041 1.82285V12.7604C15.1041 12.9042 15.2208 13.0209 15.3646 13.0209H23.1771C23.3208 13.0209 23.4375 12.9042 23.4375 12.7604V1.82285C23.4375 1.67923 23.3208 1.5625 23.1771 1.5625H15.3646Z" fill="#333333"/>
</svg>
