<svg width="32" height="40" viewBox="0 0 32 40" fill="none" xmlns="http://www.w3.org/2000/svg">
    <path d="M31.0085 7.56001L23.8657 0.417103C23.7327 0.283761 23.5743 0.178376 23.4 0.107143C23.2276 0.0367466 23.0433 0.000334821 22.8572 0H4.28571C1.91878 0 0 1.91878 0 4.28571V35.7143C0 38.0812 1.91878 40 4.28571 40H27.1429C29.5098 40 31.4286 38.0812 31.4286 35.7143V8.57142C31.4266 8.19224 31.2757 7.82904 31.0085 7.56001ZM24.2857 4.87717L26.5514 7.14291H24.2857V4.87717ZM28.5714 35.7143C28.5714 36.5033 27.9318 37.1429 27.1428 37.1429H4.28571C3.4967 37.1429 2.85711 36.5033 2.85711 35.7143V4.28571C2.85711 3.49671 3.4967 2.85711 4.28571 2.85711H21.4286V8.57142C21.4286 9.36043 22.0681 10 22.8572 10H28.5715L28.5714 35.7143Z" fill="#939393"/>
</svg>
