<svg width="25" height="25" viewBox="0 0 25 25" fill="none" xmlns="http://www.w3.org/2000/svg">
<path d="M21.875 0H3.125C1.40156 0 0 1.40156 0 3.125V17.1875C0 18.9109 1.40156 20.3125 3.125 20.3125H4.6875V24.2188C4.6875 24.5219 4.8625 24.7969 5.1375 24.9266C5.24219 24.975 5.35625 25 5.46875 25C5.64687 25 5.82656 24.9391 5.96875 24.8188L11.375 20.3125H21.875C23.5984 20.3125 25 18.9109 25 17.1875V3.125C25 1.40156 23.5984 0 21.875 0ZM23.4375 17.1875C23.4375 18.05 22.7375 18.75 21.875 18.75H11.0938C10.9109 18.75 10.7344 18.8141 10.5938 18.9312L6.25 22.5516V19.5312C6.25 19.1 5.9 18.75 5.46875 18.75H3.125C2.2625 18.75 1.5625 18.05 1.5625 17.1875V3.125C1.5625 2.2625 2.2625 1.5625 3.125 1.5625H21.875C22.7375 1.5625 23.4375 2.2625 23.4375 3.125V17.1875Z" fill="#A6A6A6"/>
<path d="M13.2812 3.125C10.2531 3.125 7.68906 5.05938 6.70156 7.74844L6.16719 6.68125C5.97344 6.29531 5.50469 6.13906 5.11875 6.33281C4.73281 6.52656 4.57812 6.99531 4.77031 7.38125L6.33281 10.5063C6.34531 10.5328 6.37187 10.5484 6.3875 10.5734C6.42656 10.6344 6.46719 10.6906 6.52187 10.7391C6.55312 10.7656 6.5875 10.7844 6.62187 10.8062C6.67656 10.8406 6.73437 10.8703 6.79844 10.8906C6.81719 10.8969 6.83125 10.9109 6.85156 10.9156C6.91094 10.9297 6.97188 10.9375 7.03125 10.9375C7.18906 10.9375 7.32812 10.8781 7.45156 10.7984C7.46563 10.7891 7.48594 10.7922 7.5 10.7812L10.625 8.4375C10.9703 8.17813 11.0391 7.68906 10.7812 7.34375C10.5203 6.99844 10.0312 6.92812 9.6875 7.1875L8.14531 8.34375C8.89687 6.22188 10.9047 4.6875 13.2812 4.6875C16.2969 4.6875 18.75 7.14062 18.75 10.1562C18.75 13.1719 16.2969 15.625 13.2812 15.625C12.85 15.625 12.5 15.975 12.5 16.4062C12.5 16.8375 12.85 17.1875 13.2812 17.1875C17.1578 17.1875 20.3125 14.0328 20.3125 10.1562C20.3125 6.27969 17.1578 3.125 13.2812 3.125Z" fill="#A6A6A6"/>
</svg>
