<svg width="25" height="25" viewBox="0 0 25 25" fill="none" xmlns="http://www.w3.org/2000/svg">
<path d="M24.7071 9.5458L12.9887 0.171088C12.7028 -0.0570295 12.2981 -0.0570295 12.0122 0.171088L0.293778 9.5458C0.0344115 9.7536 -0.0655854 10.102 0.0437862 10.4145C0.15472 10.7286 0.450023 10.9379 0.781263 10.9379H3.12494V17.969C3.12494 19.2611 4.17647 20.3126 5.46862 20.3126H8.22791L11.8997 24.7188C12.0481 24.8969 12.2043 24.9906 12.4996 25C12.7262 25 12.9418 24.9016 13.0903 24.7297L16.9198 20.3126H19.5307C20.8228 20.3126 21.8744 19.2611 21.8744 17.969V10.9379H24.218C24.5493 10.9379 24.8446 10.7286 24.9555 10.4145C25.0649 10.102 24.9649 9.7536 24.7071 9.5458ZM21.0931 9.37549C20.6619 9.37549 20.3119 9.72548 20.3119 10.1567V17.969C20.3119 18.3986 19.9619 18.7502 19.5307 18.7502H16.562C16.3355 18.7502 16.1198 18.8486 15.9714 19.0205L12.5106 23.0126L9.1935 19.0314C9.04507 18.8518 8.82476 18.7502 8.59352 18.7502H5.46862C5.03738 18.7502 4.68739 18.3986 4.68739 17.969V10.1567C4.68739 9.72548 4.3374 9.37549 3.90617 9.37549H3.00776L12.4996 1.78354L21.9915 9.37549H21.0931Z" fill="currentColor"/>
<path d="M14.8433 9.37549H10.156C9.72473 9.37549 9.37474 9.72548 9.37474 10.1567V16.4065C9.37474 16.8378 9.72473 17.1877 10.156 17.1877H14.8433C15.2746 17.1877 15.6245 16.8378 15.6245 16.4065V10.1567C15.6245 9.72548 15.2746 9.37549 14.8433 9.37549ZM14.0621 15.6253H10.9372V10.9379H14.0621V15.6253Z" fill="currentColor"/>
</svg>
