<svg width="25" height="25" viewBox="0 0 25 25" fill="none" xmlns="http://www.w3.org/2000/svg">
<path d="M19.5312 14.0625C19.1 14.0625 18.75 14.4125 18.75 14.8438V17.1875C18.75 18.0484 18.0484 18.75 17.1875 18.75H9.375C9.18906 18.75 9.00781 18.8156 8.86719 18.9391L4.6875 22.5203V19.5312C4.6875 19.1 4.3375 18.75 3.90625 18.75H3.125C2.26406 18.75 1.5625 18.0484 1.5625 17.1875V7.8125C1.5625 6.95156 2.26406 6.25 3.125 6.25H10.1562C10.5875 6.25 10.9375 5.9 10.9375 5.46875C10.9375 5.0375 10.5875 4.6875 10.1562 4.6875H3.125C1.40156 4.6875 0 6.08906 0 7.8125V17.1875C0 18.9109 1.40156 20.3125 3.125 20.3125V24.2188C3.125 24.5234 3.30312 24.8016 3.57969 24.9281C3.68438 24.9766 3.79531 25 3.90625 25C4.08906 25 4.27031 24.9359 4.41406 24.8109L9.66406 20.3125H17.1875C18.9109 20.3125 20.3125 18.9109 20.3125 17.1875V14.8438C20.3125 14.4125 19.9625 14.0625 19.5312 14.0625Z" fill="#A6A6A6"/>
<path d="M18.75 0C15.3031 0 12.5 2.80312 12.5 6.25C12.5 9.69688 15.3031 12.5 18.75 12.5C22.1969 12.5 25 9.69688 25 6.25C25 2.80312 22.1969 0 18.75 0ZM18.75 10.9375C16.1656 10.9375 14.0625 8.83438 14.0625 6.25C14.0625 3.66562 16.1656 1.5625 18.75 1.5625C21.3344 1.5625 23.4375 3.66562 23.4375 6.25C23.4375 8.83438 21.3344 10.9375 18.75 10.9375Z" fill="#A6A6A6"/>
<path d="M21.0938 5.46875H19.5312V3.90625C19.5312 3.475 19.1812 3.125 18.75 3.125C18.3188 3.125 17.9688 3.475 17.9688 3.90625V5.46875H16.4062C15.975 5.46875 15.625 5.81875 15.625 6.25C15.625 6.68125 15.975 7.03125 16.4062 7.03125H17.9688V8.59375C17.9688 9.025 18.3188 9.375 18.75 9.375C19.1812 9.375 19.5312 9.025 19.5312 8.59375V7.03125H21.0938C21.525 7.03125 21.875 6.68125 21.875 6.25C21.875 5.81875 21.525 5.46875 21.0938 5.46875Z" fill="#A6A6A6"/>
</svg>
