<svg width="14" height="14" viewBox="0 0 14 14" fill="none" xmlns="http://www.w3.org/2000/svg">
<path d="M10.1227 1.189C10.2883 1.02342 10.4849 0.892083 10.7012 0.802476C10.9175 0.712868 11.1494 0.666748 11.3836 0.666748C11.6177 0.666748 11.8496 0.712868 12.0659 0.802476C12.2822 0.892083 12.4788 1.02342 12.6444 1.189C12.81 1.35457 12.9413 1.55113 13.0309 1.76746C13.1205 1.98379 13.1666 2.21566 13.1666 2.44981C13.1666 2.68397 13.1205 2.91583 13.0309 3.13216C12.9413 3.34849 12.81 3.54505 12.6444 3.71063L4.13387 12.2211L0.666626 13.1667L1.61224 9.6995L10.1227 1.189Z" fill="#FEFEFE" stroke="#01B133" stroke-linecap="round" stroke-linejoin="round"/>
</svg>
