<svg width="20" height="20" viewBox="0 0 20 20" fill="none" xmlns="http://www.w3.org/2000/svg">
<path d="M18.709 2.16711C18.6609 2.12207 18.5603 2.04597 18.4912 1.99511C17.2375 1.04969 15.3102 -0.080156 13.45 0.00448523C10.3354 0.148142 6.1957 4.35147 5.00101 5.63662C3.80672 6.92216 -0.0832812 11.3577 0.00136001 14.4715C0.0141727 14.9906 0.123274 15.5408 0.325947 16.1061C0.793804 17.4111 1.6837 18.5891 2.3387 19.3372C2.3387 19.3372 2.47576 19.4984 2.54176 19.5605C2.71065 19.717 2.9572 19.8408 3.29538 19.939C3.46815 19.9891 3.65025 20 3.77216 20C3.90806 20 4.1713 19.9864 4.41086 19.8971C4.73855 19.7748 4.97306 19.6346 5.13069 19.4669C5.24601 19.3427 7.44552 16.5351 7.45794 16.5173L7.47192 16.4959C7.58878 16.3437 7.68003 16.1849 7.74331 16.0234C7.9091 15.6002 7.9157 15.1316 7.76273 14.7033C7.66527 14.4312 7.50414 14.1862 7.29992 13.9971L6.26714 13.0322C6.17007 12.9418 6.06951 12.7737 6.05515 12.7143C6.0435 12.6517 6.04039 12.6083 6.03962 12.5803L12.0573 6.10486C12.072 6.08933 12.0864 6.08157 12.0965 6.0773C12.1058 6.0804 12.114 6.08429 12.1202 6.08623C12.1683 6.10991 12.3213 6.22173 12.4727 6.36151L13.5063 7.31624C14.0495 7.82137 14.8943 7.94678 15.5532 7.6253C15.7881 7.51076 15.9636 7.3539 16.0463 7.2813L16.0929 7.24364C16.1142 7.225 18.7082 4.86126 18.8057 4.75526C19.0499 4.49241 19.1819 4.07852 19.2099 3.4903C19.2254 3.16339 19.1291 2.75338 18.9812 2.51538C18.8853 2.3624 18.796 2.24787 18.709 2.16711ZM17.9624 3.9504C17.828 4.08279 15.4717 6.23416 15.3482 6.34675L15.2523 6.42596C15.2162 6.45818 15.1312 6.53389 15.0411 6.57816C14.805 6.69308 14.4975 6.64804 14.2968 6.46168L13.2621 5.50577C13.1413 5.39396 12.8323 5.12217 12.5748 5.01424C12.4032 4.94279 12.2538 4.90902 12.0802 4.90863C11.7486 4.92028 11.4396 5.06083 11.2062 5.30854L5.12798 11.8492C4.89696 12.0981 4.82319 12.4599 4.909 12.9251C4.97539 13.2846 5.24717 13.674 5.47159 13.8837L6.50631 14.8501C6.57581 14.9145 6.63094 15 6.66588 15.0962C6.72335 15.257 6.72063 15.4402 6.65851 15.5987C6.6224 15.6911 6.56222 15.7679 6.54242 15.7932C6.52378 15.8172 6.51019 15.8367 6.49932 15.8541C6.29082 16.1232 4.39338 18.5374 4.28312 18.6683C4.28312 18.6683 4.21828 18.7257 4.00357 18.8061C3.97328 18.8174 3.88398 18.8352 3.77255 18.8352C3.69218 18.8352 3.63977 18.8263 3.62074 18.8205C3.41263 18.7599 3.33964 18.7098 3.33809 18.7098C3.30043 18.6721 3.23559 18.5937 3.22433 18.5805C2.62679 17.8976 1.82891 16.8461 1.42279 15.7128C1.26205 15.2648 1.17585 14.8377 1.16615 14.4416C1.1083 12.3143 3.65607 8.79591 5.8548 6.42984C8.05315 4.06338 11.3763 1.26595 13.5036 1.16811C15.0372 1.09667 16.6877 2.09411 17.7772 2.91529L17.8191 2.94674C17.844 2.96499 17.8905 2.99799 17.9107 3.01507C17.9383 3.04419 17.9651 3.08768 17.9868 3.12223C18.0132 3.17387 18.0505 3.33422 18.0455 3.4344C18.0288 3.7784 17.967 3.93758 17.9624 3.9504Z" fill="white"/>
</svg>
