<svg width="25" height="20" viewBox="0 0 25 20" fill="none" xmlns="http://www.w3.org/2000/svg">
<path d="M22.0713 0H2.92873C1.31378 0 0 1.31378 0 2.92873V5.65968C0 6.19907 0.437164 6.63624 0.976562 6.63624H1.75781V18.148C1.75781 18.6874 2.19498 19.1246 2.73438 19.1246H22.2656C22.805 19.1246 23.2422 18.6874 23.2422 18.148V6.63624H24.0234C24.5628 6.63624 25 6.19907 25 5.65968V2.92873C25 1.31378 23.6862 0 22.0713 0ZM23.0469 2.92873V4.68311C22.3301 4.68311 18.0273 4.68311 17.1387 4.68311V1.95312H22.0713C22.6091 1.95312 23.0469 2.39086 23.0469 2.92873ZM13.4766 6.63624V17.1715H11.5234V6.63624H13.4766ZM9.81445 4.68311V1.95312H15.1855V4.68311H9.81445ZM1.95312 2.92873C1.95312 2.39086 2.39086 1.95312 2.92873 1.95312H7.86133V4.68311C6.97269 4.68311 2.66609 4.68311 1.95312 4.68311V2.92873ZM3.71094 6.63624H9.57031V17.1715H3.71094V6.63624ZM21.2891 17.1715H15.4297V6.63624H21.2891V17.1715Z" fill="#333333"/>
</svg>
