<svg width="25" height="25" viewBox="0 0 25 25" fill="none" xmlns="http://www.w3.org/2000/svg">
<path d="M21.875 0H3.125C1.40156 0 0 1.40156 0 3.125V17.1875C0 18.9109 1.40156 20.3125 3.125 20.3125H4.6875V24.2188C4.6875 24.5219 4.8625 24.7984 5.1375 24.9266C5.24219 24.975 5.35625 25 5.46875 25C5.64687 25 5.82656 24.9375 5.96875 24.8188L11.375 20.3125H21.875C23.5984 20.3125 25 18.9109 25 17.1875V3.125C25 1.40156 23.5984 0 21.875 0ZM23.4375 17.1875C23.4375 18.0484 22.7375 18.75 21.875 18.75H11.0938C10.9109 18.75 10.7344 18.8141 10.5938 18.9312L6.25 22.5516V19.5312C6.25 19.1 5.9 18.75 5.46875 18.75H3.125C2.2625 18.75 1.5625 18.0484 1.5625 17.1875V3.125C1.5625 2.26406 2.2625 1.5625 3.125 1.5625H21.875C22.7375 1.5625 23.4375 2.26406 23.4375 3.125V17.1875Z" fill="#A6A6A6"/>
<path d="M13.2812 6.25H10.9375V3.90625C10.9375 3.59063 10.7469 3.30469 10.4547 3.18438C10.1641 3.0625 9.82656 3.12969 9.60312 3.35312L4.91562 8.04062C4.61094 8.34531 4.61094 8.84062 4.91562 9.14531L9.60312 13.8328C9.82812 14.0594 10.1656 14.1266 10.4547 14.0031C10.7469 13.8828 10.9375 13.5969 10.9375 13.2812V10.9375H14.0625C15.7766 10.9375 17.4125 11.7547 18.4391 13.1266L18.9078 13.75C19.0562 13.95 19.2906 14.0625 19.5312 14.0625C19.6141 14.0625 19.6969 14.05 19.7781 14.0219C20.0969 13.9156 20.3125 13.6172 20.3125 13.2812C20.3125 9.40469 17.1578 6.25 13.2812 6.25ZM14.0625 9.375H10.1562C9.725 9.375 9.375 9.725 9.375 10.1562V11.3953L6.57344 8.59375L9.375 5.79219V7.03125C9.375 7.4625 9.725 7.8125 10.1562 7.8125H13.2812C15.3328 7.8125 17.1266 8.95 18.0625 10.6266C16.8969 9.82344 15.5016 9.375 14.0625 9.375Z" fill="#A6A6A6"/>
</svg>
