<svg width="25" height="25" viewBox="0 0 25 25" fill="none" xmlns="http://www.w3.org/2000/svg">
<path d="M21.875 0H3.125C1.40156 0 0 1.40156 0 3.125V17.1875C0 18.9109 1.40156 20.3125 3.125 20.3125H4.6875V24.2188C4.6875 24.5219 4.8625 24.7969 5.1375 24.9266C5.24219 24.975 5.35625 25 5.46875 25C5.64687 25 5.82656 24.9391 5.96875 24.8188L11.375 20.3125H21.875C23.5984 20.3125 25 18.9109 25 17.1875V3.125C25 1.40156 23.5984 0 21.875 0ZM23.4375 17.1875C23.4375 18.05 22.7375 18.75 21.875 18.75H11.0938C10.9109 18.75 10.7344 18.8141 10.5938 18.9312L6.25 22.5516V19.5312C6.25 19.1 5.9 18.75 5.46875 18.75H3.125C2.2625 18.75 1.5625 18.05 1.5625 17.1875V3.125C1.5625 2.2625 2.2625 1.5625 3.125 1.5625H21.875C22.7375 1.5625 23.4375 2.2625 23.4375 3.125V17.1875Z" fill="#A6A6A6"/>
<path d="M12.5 3.125C8.62344 3.125 5.46875 6.27969 5.46875 10.1562C5.46875 14.0328 8.62344 17.1875 12.5 17.1875C16.3766 17.1875 19.5312 14.0328 19.5312 10.1562C19.5312 6.27969 16.3766 3.125 12.5 3.125ZM12.5 15.625C9.48438 15.625 7.03125 13.1719 7.03125 10.1562C7.03125 7.14062 9.48438 4.6875 12.5 4.6875C15.5156 4.6875 17.9688 7.14062 17.9688 10.1562C17.9688 13.1719 15.5156 15.625 12.5 15.625Z" fill="#A6A6A6"/>
<path d="M15.625 9.375H13.2812V7.03125C13.2812 6.6 12.9312 6.25 12.5 6.25C12.0688 6.25 11.7188 6.6 11.7188 7.03125V10.1562C11.7188 10.5875 12.0688 10.9375 12.5 10.9375H15.625C16.0562 10.9375 16.4062 10.5875 16.4062 10.1562C16.4062 9.725 16.0562 9.375 15.625 9.375Z" fill="#A6A6A6"/>
</svg>
