<svg width="25" height="23" viewBox="0 0 25 23" fill="none" xmlns="http://www.w3.org/2000/svg">
<path d="M24.0234 17.2129H23.0877C23.0108 13.5077 22.4464 7.31242 20.0409 4.50327V1.09961C20.0409 0.560211 19.6037 0.123047 19.0643 0.123047H5.93567C5.39627 0.123047 4.95911 0.560211 4.95911 1.09961V4.50327C2.55356 7.31242 1.98917 13.5079 1.91231 17.2129H0.976562C0.437164 17.2129 0 17.6501 0 18.1895V21.9004C0 22.4398 0.437164 22.877 0.976562 22.877H24.0234C24.5628 22.877 25 22.4398 25 21.9004V18.1895C25 17.6501 24.5628 17.2129 24.0234 17.2129ZM6.91223 2.07617H18.088V3.90723H6.91223V2.07617ZM6.36883 5.86035H18.6312C20.5616 8.231 21.0772 14.1348 21.1376 17.2129H3.86238C3.92284 14.1348 4.4384 8.231 6.36883 5.86035ZM23.0469 20.9238H1.95312V19.166H23.0469V20.9238ZM14.1113 9.5835C14.1113 10.1229 13.6742 10.5601 13.1348 10.5601H11.8652C11.3258 10.5601 10.8887 10.1229 10.8887 9.5835C10.8887 9.0441 11.3258 8.60693 11.8652 8.60693H13.1348C13.6742 8.60693 14.1113 9.0441 14.1113 9.5835ZM9.7168 9.5835C9.7168 10.1229 9.27963 10.5601 8.74023 10.5601H7.4707C6.9313 10.5601 6.49414 10.1229 6.49414 9.5835C6.49414 9.0441 6.9313 8.60693 7.4707 8.60693H8.74023C9.27963 8.60693 9.7168 9.0441 9.7168 9.5835ZM18.5059 9.5835C18.5059 10.1229 18.0687 10.5601 17.5293 10.5601H16.2598C15.7204 10.5601 15.2832 10.1229 15.2832 9.5835C15.2832 9.0441 15.7204 8.60693 16.2598 8.60693H17.5293C18.0687 8.60693 18.5059 9.0441 18.5059 9.5835ZM14.1113 13.4897C14.1113 14.0291 13.6742 14.4663 13.1348 14.4663H11.8652C11.3258 14.4663 10.8887 14.0291 10.8887 13.4897C10.8887 12.9503 11.3258 12.5132 11.8652 12.5132H13.1348C13.6742 12.5132 14.1113 12.9503 14.1113 13.4897ZM9.7168 13.4897C9.7168 14.0291 9.27963 14.4663 8.74023 14.4663H7.4707C6.9313 14.4663 6.49414 14.0291 6.49414 13.4897C6.49414 12.9503 6.9313 12.5132 7.4707 12.5132H8.74023C9.27963 12.5132 9.7168 12.9503 9.7168 13.4897ZM18.5059 13.4897C18.5059 14.0291 18.0687 14.4663 17.5293 14.4663H16.2598C15.7204 14.4663 15.2832 14.0291 15.2832 13.4897C15.2832 12.9503 15.7204 12.5132 16.2598 12.5132H17.5293C18.0687 12.5132 18.5059 12.9503 18.5059 13.4897Z" fill="#333333"/>
</svg>
