<svg width="14" height="16" viewBox="0 0 14 16" fill="none" xmlns="http://www.w3.org/2000/svg">
<path d="M0.666626 3.61103H2.05551H13.1666" fill="none"/>
<path d="M11.7777 3.61103V13.3333C11.7777 13.7016 11.6314 14.0549 11.3709 14.3153C11.1105 14.5758 10.7572 14.7221 10.3888 14.7221H3.4444C3.07605 14.7221 2.72278 14.5758 2.46231 14.3153C2.20184 14.0549 2.05551 13.7016 2.05551 13.3333V3.61103H11.7777ZM4.13885 3.61103V2.22214C4.13885 1.85378 4.28518 1.50052 4.54564 1.24005C4.80611 0.979581 5.15938 0.833252 5.52774 0.833252H8.30551C8.67387 0.833252 9.02714 0.979581 9.28761 1.24005C9.54807 1.50052 9.6944 1.85378 9.6944 2.22214V3.61103" fill="none"/>
<path d="M0.666626 3.61103H2.05551M2.05551 3.61103H13.1666M2.05551 3.61103V13.3333C2.05551 13.7016 2.20184 14.0549 2.46231 14.3153C2.72278 14.5758 3.07605 14.7221 3.4444 14.7221H10.3888C10.7572 14.7221 11.1105 14.5758 11.3709 14.3153C11.6314 14.0549 11.7777 13.7016 11.7777 13.3333V3.61103H2.05551ZM4.13885 3.61103V2.22214C4.13885 1.85378 4.28518 1.50052 4.54564 1.24005C4.80611 0.979581 5.15938 0.833252 5.52774 0.833252H8.30551C8.67387 0.833252 9.02714 0.979581 9.28761 1.24005C9.54807 1.50052 9.6944 1.85378 9.6944 2.22214V3.61103" stroke="#B10101" stroke-linecap="round" stroke-linejoin="round"/>
</svg>
